<svg width="40" height="40" viewBox="0 0 40 40" fill="none" xmlns="http://www.w3.org/2000/svg">
<rect x="0.179688" width="39.59" height="39.59" rx="19.795" fill="#FBFBFB"/>
<g clip-path="url(#clip0_2852_3842)">
<path d="M20.5024 12C17.3713 12 16.4555 12.0032 16.2775 12.018C15.6349 12.0714 15.2351 12.1726 14.7995 12.3896C14.4638 12.5563 14.199 12.7496 13.9377 13.0205C13.4618 13.5147 13.1734 14.1226 13.069 14.8452C13.0183 15.196 13.0035 15.2675 13.0005 17.0594C12.9994 17.6566 13.0005 18.4427 13.0005 19.4971C13.0005 22.6265 13.004 23.5416 13.019 23.7193C13.0709 24.3448 13.1689 24.7383 13.3766 25.1687C13.7734 25.9926 14.5314 26.6111 15.4243 26.8419C15.7335 26.9215 16.0749 26.9654 16.5133 26.9861C16.6991 26.9942 18.5922 27 20.4864 27C22.3807 27 24.2749 26.9977 24.456 26.9885C24.9636 26.9646 25.2584 26.925 25.5843 26.8408C26.483 26.6088 27.2271 25.9995 27.632 25.1641C27.8356 24.744 27.9389 24.3355 27.9856 23.7428C27.9957 23.6135 28 21.5529 28 19.4951C28 17.4369 27.9954 15.3801 27.9852 15.2509C27.9379 14.6485 27.8347 14.2435 27.6245 13.8154C27.452 13.4649 27.2605 13.2032 26.9825 12.9356C26.4863 12.4616 25.8795 12.1731 25.1564 12.0688C24.8061 12.0181 24.7363 12.0031 22.9435 12H20.5024Z" fill="url(#paint0_radial_2852_3842)"/>
<path d="M20.5024 12C17.3713 12 16.4555 12.0032 16.2775 12.018C15.6349 12.0714 15.2351 12.1726 14.7995 12.3896C14.4638 12.5563 14.199 12.7496 13.9377 13.0205C13.4618 13.5147 13.1734 14.1226 13.069 14.8452C13.0183 15.196 13.0035 15.2675 13.0005 17.0594C12.9994 17.6566 13.0005 18.4427 13.0005 19.4971C13.0005 22.6265 13.004 23.5416 13.019 23.7193C13.0709 24.3448 13.1689 24.7383 13.3766 25.1687C13.7734 25.9926 14.5314 26.6111 15.4243 26.8419C15.7335 26.9215 16.0749 26.9654 16.5133 26.9861C16.6991 26.9942 18.5922 27 20.4864 27C22.3807 27 24.2749 26.9977 24.456 26.9885C24.9636 26.9646 25.2584 26.925 25.5843 26.8408C26.483 26.6088 27.2271 25.9995 27.632 25.1641C27.8356 24.744 27.9389 24.3355 27.9856 23.7428C27.9957 23.6135 28 21.5529 28 19.4951C28 17.4369 27.9954 15.3801 27.9852 15.2509C27.9379 14.6485 27.8347 14.2435 27.6245 13.8154C27.452 13.4649 27.2605 13.2032 26.9825 12.9356C26.4863 12.4616 25.8795 12.1731 25.1564 12.0688C24.8061 12.0181 24.7363 12.0031 22.9435 12H20.5024Z" fill="url(#paint1_radial_2852_3842)"/>
<path d="M20.5024 12C17.3713 12 16.4555 12.0032 16.2775 12.018C15.6349 12.0714 15.2351 12.1726 14.7995 12.3896C14.4638 12.5563 14.199 12.7496 13.9377 13.0205C13.4618 13.5147 13.1734 14.1226 13.069 14.8452C13.0183 15.196 13.0035 15.2675 13.0005 17.0594C12.9994 17.6566 13.0005 18.4427 13.0005 19.4971C13.0005 22.6265 13.004 23.5416 13.019 23.7193C13.0709 24.3448 13.1689 24.7383 13.3766 25.1687C13.7734 25.9926 14.5314 26.6111 15.4243 26.8419C15.7335 26.9215 16.0749 26.9654 16.5133 26.9861C16.6991 26.9942 18.5922 27 20.4864 27C22.3807 27 24.2749 26.9977 24.456 26.9885C24.9636 26.9646 25.2584 26.925 25.5843 26.8408C26.483 26.6088 27.2271 25.9995 27.632 25.1641C27.8356 24.744 27.9389 24.3355 27.9856 23.7428C27.9957 23.6135 28 21.5529 28 19.4951C28 17.4369 27.9954 15.3801 27.9852 15.2509C27.9379 14.6485 27.8347 14.2435 27.6245 13.8154C27.452 13.4649 27.2605 13.2032 26.9825 12.9356C26.4863 12.4616 25.8795 12.1731 25.1564 12.0688C24.8061 12.0181 24.7363 12.0031 22.9435 12H20.5024Z" fill="url(#paint2_radial_2852_3842)"/>
<path d="M20.5024 12C17.3713 12 16.4555 12.0032 16.2775 12.018C15.6349 12.0714 15.2351 12.1726 14.7995 12.3896C14.4638 12.5563 14.199 12.7496 13.9377 13.0205C13.4618 13.5147 13.1734 14.1226 13.069 14.8452C13.0183 15.196 13.0035 15.2675 13.0005 17.0594C12.9994 17.6566 13.0005 18.4427 13.0005 19.4971C13.0005 22.6265 13.004 23.5416 13.019 23.7193C13.0709 24.3448 13.1689 24.7383 13.3766 25.1687C13.7734 25.9926 14.5314 26.6111 15.4243 26.8419C15.7335 26.9215 16.0749 26.9654 16.5133 26.9861C16.6991 26.9942 18.5922 27 20.4864 27C22.3807 27 24.2749 26.9977 24.456 26.9885C24.9636 26.9646 25.2584 26.925 25.5843 26.8408C26.483 26.6088 27.2271 25.9995 27.632 25.1641C27.8356 24.744 27.9389 24.3355 27.9856 23.7428C27.9957 23.6135 28 21.5529 28 19.4951C28 17.4369 27.9954 15.3801 27.9852 15.2509C27.9379 14.6485 27.8347 14.2435 27.6245 13.8154C27.452 13.4649 27.2605 13.2032 26.9825 12.9356C26.4863 12.4616 25.8795 12.1731 25.1564 12.0688C24.8061 12.0181 24.7363 12.0031 22.9435 12H20.5024Z" fill="url(#paint3_radial_2852_3842)"/>
<path d="M20.5034 13.9258C18.9887 13.9258 18.7986 13.9324 18.2037 13.9595C17.61 13.9866 17.2047 14.0805 16.8501 14.2184C16.4833 14.3607 16.1721 14.5511 15.8622 14.861C15.5519 15.1708 15.3614 15.4817 15.2185 15.8481C15.0802 16.2026 14.9861 16.6077 14.9594 17.2007C14.9328 17.7952 14.9258 17.9852 14.9258 19.4988C14.9258 21.0123 14.9325 21.2016 14.9595 21.7961C14.9868 22.3894 15.0808 22.7944 15.2186 23.1487C15.3611 23.5152 15.5517 23.8262 15.8618 24.1359C16.1717 24.4459 16.4828 24.6368 16.8494 24.7791C17.2043 24.917 17.6097 25.0109 18.2033 25.0381C18.7982 25.0651 18.9881 25.0717 20.5027 25.0717C22.0174 25.0717 22.2069 25.0651 22.8018 25.0381C23.3956 25.0109 23.8013 24.917 24.1561 24.7791C24.5228 24.6368 24.8335 24.4459 25.1434 24.1359C25.4536 23.8262 25.6442 23.5152 25.7871 23.1488C25.9242 22.7944 26.0183 22.3893 26.0462 21.7962C26.0729 21.2018 26.0799 21.0123 26.0799 19.4988C26.0799 17.9852 26.0729 17.7953 26.0462 17.2008C26.0183 16.6075 25.9242 16.2026 25.7871 15.8482C25.6442 15.4817 25.4536 15.1708 25.1434 14.861C24.8332 14.551 24.5229 14.3606 24.1558 14.2184C23.8002 14.0805 23.3947 13.9866 22.801 13.9595C22.2061 13.9324 22.0167 13.9258 20.5016 13.9258H20.5034ZM20.003 14.9301C20.1515 14.9298 20.3172 14.9301 20.5034 14.9301C21.9924 14.9301 22.1689 14.9354 22.757 14.9621C23.3007 14.987 23.5959 15.0778 23.7925 15.154C24.0527 15.255 24.2383 15.3758 24.4334 15.5709C24.6286 15.7659 24.7494 15.9517 24.8507 16.2117C24.9271 16.408 25.018 16.7029 25.0428 17.2462C25.0695 17.8337 25.0753 18.0102 25.0753 19.4975C25.0753 20.9848 25.0695 21.1612 25.0428 21.7487C25.0179 22.2921 24.9271 22.587 24.8507 22.7832C24.7496 23.0433 24.6286 23.2285 24.4334 23.4234C24.2382 23.6185 24.0528 23.7392 23.7925 23.8402C23.5961 23.9168 23.3007 24.0074 22.757 24.0322C22.1691 24.059 21.9924 24.0648 20.5034 24.0648C19.0142 24.0648 18.8377 24.059 18.2497 24.0322C17.706 24.0072 17.4109 23.9164 17.2141 23.8401C16.9539 23.7391 16.768 23.6183 16.5728 23.4233C16.3776 23.2282 16.2567 23.0429 16.1554 22.7827C16.0791 22.5865 15.9881 22.2916 15.9634 21.7483C15.9366 21.1608 15.9313 20.9843 15.9313 19.4961C15.9313 18.0079 15.9366 17.8323 15.9634 17.2448C15.9882 16.7015 16.0791 16.4066 16.1554 16.2101C16.2565 15.95 16.3776 15.7643 16.5728 15.5692C16.768 15.3742 16.9539 15.2534 17.2141 15.1522C17.4107 15.0756 17.706 14.985 18.2497 14.96C18.7642 14.9368 18.9636 14.9298 20.003 14.9287L20.003 14.9301ZM23.4804 15.8554C23.1109 15.8554 22.8111 16.1546 22.8111 16.5239C22.8111 16.8932 23.1109 17.1927 23.4804 17.1927C23.8499 17.1927 24.1496 16.8932 24.1496 16.5239C24.1496 16.1547 23.8499 15.8552 23.4804 15.8552L23.4804 15.8554ZM20.5034 16.6368C18.9217 16.6368 17.6393 17.9182 17.6393 19.4988C17.6393 21.0793 18.9217 22.3601 20.5034 22.3601C22.085 22.3601 23.367 21.0793 23.367 19.4988C23.367 17.9182 22.0849 16.6368 20.5032 16.6368H20.5034ZM20.5034 17.6411C21.53 17.6411 22.3624 18.4727 22.3624 19.4988C22.3624 20.5246 21.53 21.3564 20.5034 21.3564C19.4766 21.3564 18.6443 20.5246 18.6443 19.4988C18.6443 18.4727 19.4766 17.6411 20.5034 17.6411Z" fill="white"/>
</g>
<defs>
<radialGradient id="paint0_radial_2852_3842" cx="0" cy="0" r="1" gradientUnits="userSpaceOnUse" gradientTransform="translate(27.5157 19.0307) rotate(164.25) scale(9.58415 6.90492)">
<stop stop-color="#FF005F"/>
<stop offset="1" stop-color="#FC01D8"/>
</radialGradient>
<radialGradient id="paint1_radial_2852_3842" cx="0" cy="0" r="1" gradientUnits="userSpaceOnUse" gradientTransform="translate(16.9843 28.1553) rotate(-90) scale(11.9733 12.7034)">
<stop stop-color="#FFCC00"/>
<stop offset="0.1242" stop-color="#FFCC00"/>
<stop offset="0.5672" stop-color="#FE4A05"/>
<stop offset="0.6942" stop-color="#FF0F3F"/>
<stop offset="1" stop-color="#FE0657" stop-opacity="0"/>
</radialGradient>
<radialGradient id="paint2_radial_2852_3842" cx="0" cy="0" r="1" gradientUnits="userSpaceOnUse" gradientTransform="translate(20.879 26.7885) rotate(-59.8703) scale(4.95106 6.44572)">
<stop stop-color="#FFCC00"/>
<stop offset="1" stop-color="#FFCC00" stop-opacity="0"/>
</radialGradient>
<radialGradient id="paint3_radial_2852_3842" cx="0" cy="0" r="1" gradientUnits="userSpaceOnUse" gradientTransform="translate(15.0352 12.6108) rotate(164.274) scale(9.47784 3.22909)">
<stop stop-color="#780CFF"/>
<stop offset="1" stop-color="#820BFF" stop-opacity="0"/>
</radialGradient>
<clipPath id="clip0_2852_3842">
<rect width="15" height="15" fill="white" transform="translate(13 12)"/>
</clipPath>
</defs>
</svg>
