<svg width="40" height="40" viewBox="0 0 40 40" fill="none" xmlns="http://www.w3.org/2000/svg">
<rect width="39.59" height="39.59" rx="19.795" fill="#1877F2"/>
<g clip-path="url(#clip0_2852_3832)">
<path d="M27 18.4993C27 14.3572 23.6421 10.9993 19.5 10.9993C15.3579 10.9993 12 14.3572 12 18.4993C12 22.2428 14.7426 25.3456 18.3281 25.9082V20.6673H16.4238V18.4993H18.3281V16.847C18.3281 14.9673 19.4478 13.929 21.161 13.929C21.9815 13.929 22.8398 14.0755 22.8398 14.0755V15.9212H21.8941C20.9624 15.9212 20.6719 16.4993 20.6719 17.0924V18.4993H22.752L22.4194 20.6673H20.6719V25.9082C24.2574 25.3456 27 22.2428 27 18.4993Z" fill="#1877F2"/>
<path d="M22.4194 20.668L22.752 18.5H20.6719V17.0931C20.6719 16.5 20.9624 15.9219 21.8941 15.9219H22.8398V14.0762C22.8398 14.0762 21.9815 13.9297 21.161 13.9297C19.4478 13.9297 18.3281 14.968 18.3281 16.8477V18.5H16.4238V20.668H18.3281V25.9089C18.71 25.9688 19.1013 26 19.5 26C19.8987 26 20.29 25.9688 20.6719 25.9089V20.668H22.4194Z" fill="white"/>
</g>
<defs>
<clipPath id="clip0_2852_3832">
<rect width="15" height="15" fill="white" transform="translate(12 11)"/>
</clipPath>
</defs>
</svg>
